# xmcd
#
# Track frame offsets: 
#        150
#        28945
#        60924
#        100653
#        145294
#        179640
#        210429
#        247016
#        281476
#        312272
#
# Disc length: 4478 seconds
#
# Revision: 0
# Processed by: cddbd v1.5.2PL0 Copyright (c) Steve Scherf et al.
# Submitted via: ExactAudioCopy v1.0b3
#
DISCID=8e117c0a
DTITLE=Various Artist - D.Trance Vol. 63 - CD 1
DYEAR=1900
DGENRE=
TTITLE0=MarLo - Boom (Original Mix)
TTITLE1=Adam Seller - Titanium Orchestra (Darren Porter Remix)
TTITLE2=DJ Yorrin - Echoes Of Peace (Original Mix)
TTITLE3=Photographer - Tic Tac (Original Mix)
TTITLE4=Matt Bukovski - Phoenix (Original Mix)
TTITLE5=Guyver - Escape The Asylum (NG Rezonance Reprise)
TTITLE6=Alex M.O.R.P.H. - New York City (Original Mix)
TTITLE7=DUi - Semper Anticus (Original Mix)
TTITLE8=Tom Shock and Paul F - Synthetic
TTITLE9=Bas Van Den Eijken - What Colour (The Shameless UK Mix)
EXTD=
EXTT0=
EXTT1=
EXTT2=
EXTT3=
EXTT4=
EXTT5=
EXTT6=
EXTT7=
EXTT8=
EXTT9=
PLAYORDER=
